<svg width="200" height="200" viewBox="0 0 200 200" fill="none" xmlns="http://www.w3.org/2000/svg">
<path d="M104 47C106.471 48.8243 108.534 50.9749 110.648 53.1953C111.265 53.821 111.881 54.4467 112.516 55.0913C114.481 57.091 116.428 59.1071 118.375 61.125C120.318 63.118 122.264 65.1074 124.213 67.0945C125.421 68.3291 126.626 69.5677 127.826 70.8111C131.397 74.4853 135.119 77.8871 138.997 81.2335C142.288 84.1363 145.387 87.2247 148.492 90.3242C149.164 90.9929 149.836 91.6616 150.529 92.3505C151.933 93.75 153.336 95.1509 154.738 96.553C156.885 98.6977 159.04 100.834 161.195 102.971C162.566 104.338 163.935 105.706 165.305 107.074C166.269 108.027 166.269 108.027 167.252 109C168.144 109.897 168.144 109.897 169.054 110.811C169.837 111.592 169.837 111.592 170.636 112.389C173.107 115.308 174.048 117.209 173.812 121.062C172.602 125.439 172.602 125.439 170 127C165.423 127.607 163.573 127.422 159.804 124.646C158.69 123.552 157.594 122.438 156.514 121.309C155.908 120.704 155.302 120.099 154.678 119.476C152.686 117.479 150.72 115.459 148.754 113.438C147.375 112.046 145.995 110.656 144.614 109.267C140.986 105.613 137.38 101.939 133.778 98.2592C130.097 94.5065 126.397 90.7736 122.697 87.0391C115.445 79.712 108.216 72.363 101 65C96.9121 66.6208 94.1864 69.5528 91.1616 72.6272C90.5887 73.2013 90.0159 73.7755 89.4257 74.367C87.537 76.2623 85.6553 78.1644 83.7734 80.0664C82.4616 81.3845 81.1493 82.702 79.8365 84.019C76.384 87.4849 72.9371 90.9562 69.4917 94.4292C63.9709 99.9931 58.4434 105.55 52.9127 111.104C50.9792 113.048 49.0492 114.995 47.1194 116.943C45.9396 118.129 44.7596 119.316 43.5795 120.502C43.0413 121.047 42.5031 121.592 41.9486 122.154C37.2283 126.888 37.2283 126.888 32.5624 127.312C28.9999 127 28.9999 127 26.9999 125.438C25.485 121.745 25.8504 119.832 26.9999 116C32.7215 107.965 40.7112 101.125 47.6679 94.1641C48.9936 92.8351 50.3192 91.5062 51.6448 90.1771C54.4091 87.4068 57.1755 84.6386 59.9431 81.8716C63.4889 78.3258 67.0278 74.7732 70.565 71.2189C73.2939 68.4788 76.0274 65.7434 78.7621 63.0092C80.0694 61.7006 81.3752 60.3905 82.6792 59.0787C84.4978 57.2503 86.3226 55.4284 88.1491 53.6079C88.6848 53.0666 89.2204 52.5253 89.7723 51.9677C94.4673 47.3121 97.3876 44.8856 104 47Z" fill="white"/>
<path d="M108.875 123.563C113.124 126.876 115.515 129.838 116.344 135.242C116.61 141.824 114.905 145.909 110.437 150.812C106.408 153.91 101.96 154.26 96.9999 154C91.104 152.357 88.4277 149.839 84.9999 145C83.4016 140.205 82.9938 135.511 84.9062 130.738C89.963 121.97 99.6054 118.938 108.875 123.563Z" fill="white"/>
</svg>
